<svg xmlns="http://www.w3.org/2000/svg" viewBox="0 0 360 360" width="360" height="360" shape-rendering="geometricPrecision" role="img" aria-label="oxGBC">
  <defs>
    <clipPath id="plate"><rect x="0" y="0" width="360" height="360" rx="65"/></clipPath>
    <clipPath id="device">
    <rect x="80" y="20" width="20" height="20"/>
  <rect x="100" y="20" width="20" height="20"/>
  <rect x="120" y="20" width="20" height="20"/>
  <rect x="140" y="20" width="20" height="20"/>
  <rect x="160" y="20" width="20" height="20"/>
  <rect x="180" y="20" width="20" height="20"/>
  <rect x="200" y="20" width="20" height="20"/>
  <rect x="220" y="20" width="20" height="20"/>
  <rect x="240" y="20" width="20" height="20"/>
  <rect x="60" y="40" width="20" height="20"/>
  <rect x="80" y="40" width="20" height="20"/>
  <rect x="100" y="40" width="20" height="20"/>
  <rect x="120" y="40" width="20" height="20"/>
  <rect x="140" y="40" width="20" height="20"/>
  <rect x="160" y="40" width="20" height="20"/>
  <rect x="180" y="40" width="20" height="20"/>
  <rect x="200" y="40" width="20" height="20"/>
  <rect x="220" y="40" width="20" height="20"/>
  <rect x="240" y="40" width="20" height="20"/>
  <rect x="260" y="40" width="20" height="20"/>
  <rect x="60" y="60" width="20" height="20"/>
  <rect x="80" y="60" width="20" height="20"/>
  <rect x="100" y="60" width="20" height="20"/>
  <rect x="120" y="60" width="20" height="20"/>
  <rect x="140" y="60" width="20" height="20"/>
  <rect x="160" y="60" width="20" height="20"/>
  <rect x="180" y="60" width="20" height="20"/>
  <rect x="200" y="60" width="20" height="20"/>
  <rect x="220" y="60" width="20" height="20"/>
  <rect x="240" y="60" width="20" height="20"/>
  <rect x="260" y="60" width="20" height="20"/>
  <rect x="60" y="80" width="20" height="20"/>
  <rect x="80" y="80" width="20" height="20"/>
  <rect x="100" y="80" width="20" height="20"/>
  <rect x="120" y="80" width="20" height="20"/>
  <rect x="140" y="80" width="20" height="20"/>
  <rect x="160" y="80" width="20" height="20"/>
  <rect x="180" y="80" width="20" height="20"/>
  <rect x="200" y="80" width="20" height="20"/>
  <rect x="220" y="80" width="20" height="20"/>
  <rect x="240" y="80" width="20" height="20"/>
  <rect x="260" y="80" width="20" height="20"/>
  <rect x="60" y="100" width="20" height="20"/>
  <rect x="80" y="100" width="20" height="20"/>
  <rect x="100" y="100" width="20" height="20"/>
  <rect x="120" y="100" width="20" height="20"/>
  <rect x="140" y="100" width="20" height="20"/>
  <rect x="160" y="100" width="20" height="20"/>
  <rect x="180" y="100" width="20" height="20"/>
  <rect x="200" y="100" width="20" height="20"/>
  <rect x="220" y="100" width="20" height="20"/>
  <rect x="240" y="100" width="20" height="20"/>
  <rect x="260" y="100" width="20" height="20"/>
  <rect x="60" y="120" width="20" height="20"/>
  <rect x="80" y="120" width="20" height="20"/>
  <rect x="100" y="120" width="20" height="20"/>
  <rect x="120" y="120" width="20" height="20"/>
  <rect x="140" y="120" width="20" height="20"/>
  <rect x="160" y="120" width="20" height="20"/>
  <rect x="180" y="120" width="20" height="20"/>
  <rect x="200" y="120" width="20" height="20"/>
  <rect x="220" y="120" width="20" height="20"/>
  <rect x="240" y="120" width="20" height="20"/>
  <rect x="260" y="120" width="20" height="20"/>
  <rect x="60" y="140" width="20" height="20"/>
  <rect x="80" y="140" width="20" height="20"/>
  <rect x="100" y="140" width="20" height="20"/>
  <rect x="120" y="140" width="20" height="20"/>
  <rect x="140" y="140" width="20" height="20"/>
  <rect x="160" y="140" width="20" height="20"/>
  <rect x="180" y="140" width="20" height="20"/>
  <rect x="200" y="140" width="20" height="20"/>
  <rect x="220" y="140" width="20" height="20"/>
  <rect x="240" y="140" width="20" height="20"/>
  <rect x="260" y="140" width="20" height="20"/>
  <rect x="60" y="160" width="20" height="20"/>
  <rect x="80" y="160" width="20" height="20"/>
  <rect x="100" y="160" width="20" height="20"/>
  <rect x="120" y="160" width="20" height="20"/>
  <rect x="140" y="160" width="20" height="20"/>
  <rect x="160" y="160" width="20" height="20"/>
  <rect x="180" y="160" width="20" height="20"/>
  <rect x="200" y="160" width="20" height="20"/>
  <rect x="220" y="160" width="20" height="20"/>
  <rect x="240" y="160" width="20" height="20"/>
  <rect x="260" y="160" width="20" height="20"/>
  <rect x="60" y="180" width="20" height="20"/>
  <rect x="80" y="180" width="20" height="20"/>
  <rect x="100" y="180" width="20" height="20"/>
  <rect x="120" y="180" width="20" height="20"/>
  <rect x="140" y="180" width="20" height="20"/>
  <rect x="160" y="180" width="20" height="20"/>
  <rect x="180" y="180" width="20" height="20"/>
  <rect x="200" y="180" width="20" height="20"/>
  <rect x="220" y="180" width="20" height="20"/>
  <rect x="240" y="180" width="20" height="20"/>
  <rect x="260" y="180" width="20" height="20"/>
  <rect x="60" y="200" width="20" height="20"/>
  <rect x="80" y="200" width="20" height="20"/>
  <rect x="100" y="200" width="20" height="20"/>
  <rect x="120" y="200" width="20" height="20"/>
  <rect x="140" y="200" width="20" height="20"/>
  <rect x="160" y="200" width="20" height="20"/>
  <rect x="180" y="200" width="20" height="20"/>
  <rect x="200" y="200" width="20" height="20"/>
  <rect x="220" y="200" width="20" height="20"/>
  <rect x="240" y="200" width="20" height="20"/>
  <rect x="260" y="200" width="20" height="20"/>
  <rect x="60" y="220" width="20" height="20"/>
  <rect x="80" y="220" width="20" height="20"/>
  <rect x="100" y="220" width="20" height="20"/>
  <rect x="120" y="220" width="20" height="20"/>
  <rect x="140" y="220" width="20" height="20"/>
  <rect x="160" y="220" width="20" height="20"/>
  <rect x="180" y="220" width="20" height="20"/>
  <rect x="200" y="220" width="20" height="20"/>
  <rect x="220" y="220" width="20" height="20"/>
  <rect x="240" y="220" width="20" height="20"/>
  <rect x="260" y="220" width="20" height="20"/>
  <rect x="60" y="240" width="20" height="20"/>
  <rect x="80" y="240" width="20" height="20"/>
  <rect x="100" y="240" width="20" height="20"/>
  <rect x="120" y="240" width="20" height="20"/>
  <rect x="140" y="240" width="20" height="20"/>
  <rect x="160" y="240" width="20" height="20"/>
  <rect x="180" y="240" width="20" height="20"/>
  <rect x="200" y="240" width="20" height="20"/>
  <rect x="220" y="240" width="20" height="20"/>
  <rect x="240" y="240" width="20" height="20"/>
  <rect x="260" y="240" width="20" height="20"/>
  <rect x="60" y="260" width="20" height="20"/>
  <rect x="80" y="260" width="20" height="20"/>
  <rect x="100" y="260" width="20" height="20"/>
  <rect x="120" y="260" width="20" height="20"/>
  <rect x="140" y="260" width="20" height="20"/>
  <rect x="160" y="260" width="20" height="20"/>
  <rect x="180" y="260" width="20" height="20"/>
  <rect x="200" y="260" width="20" height="20"/>
  <rect x="220" y="260" width="20" height="20"/>
  <rect x="240" y="260" width="20" height="20"/>
  <rect x="260" y="260" width="20" height="20"/>
  <rect x="60" y="280" width="20" height="20"/>
  <rect x="80" y="280" width="20" height="20"/>
  <rect x="100" y="280" width="20" height="20"/>
  <rect x="120" y="280" width="20" height="20"/>
  <rect x="140" y="280" width="20" height="20"/>
  <rect x="160" y="280" width="20" height="20"/>
  <rect x="180" y="280" width="20" height="20"/>
  <rect x="200" y="280" width="20" height="20"/>
  <rect x="220" y="280" width="20" height="20"/>
  <rect x="240" y="280" width="20" height="20"/>
  <rect x="260" y="280" width="20" height="20"/>
  <rect x="60" y="300" width="20" height="20"/>
  <rect x="80" y="300" width="20" height="20"/>
  <rect x="100" y="300" width="20" height="20"/>
  <rect x="120" y="300" width="20" height="20"/>
  <rect x="140" y="300" width="20" height="20"/>
  <rect x="160" y="300" width="20" height="20"/>
  <rect x="180" y="300" width="20" height="20"/>
  <rect x="200" y="300" width="20" height="20"/>
  <rect x="220" y="300" width="20" height="20"/>
  <rect x="240" y="300" width="20" height="20"/>
  <rect x="260" y="300" width="20" height="20"/>
  <rect x="80" y="320" width="20" height="20"/>
  <rect x="100" y="320" width="20" height="20"/>
  <rect x="120" y="320" width="20" height="20"/>
  <rect x="140" y="320" width="20" height="20"/>
  <rect x="160" y="320" width="20" height="20"/>
  <rect x="180" y="320" width="20" height="20"/>
  <rect x="200" y="320" width="20" height="20"/>
  <rect x="220" y="320" width="20" height="20"/>
  <rect x="240" y="320" width="20" height="20"/>
    </clipPath>
  </defs>
  <rect x="0" y="0" width="360" height="360" rx="65" fill="#0e1011"/>
  <g clip-path="url(#plate)">
    <rect x="0" y="0" width="20" height="20" fill="#3a414c"/>
  <rect x="20" y="0" width="20" height="20" fill="#3a414c"/>
  <rect x="40" y="0" width="20" height="20" fill="#3b434e"/>
  <rect x="60" y="0" width="20" height="20" fill="#3b434e"/>
  <rect x="80" y="0" width="20" height="20" fill="#3c4450"/>
  <rect x="100" y="0" width="20" height="20" fill="#3c4450"/>
  <rect x="120" y="0" width="20" height="20" fill="#434c59"/>
  <rect x="140" y="0" width="20" height="20" fill="#434c59"/>
  <rect x="160" y="0" width="20" height="20" fill="#3a424d"/>
  <rect x="180" y="0" width="20" height="20" fill="#3a424d"/>
  <rect x="200" y="0" width="20" height="20" fill="#3f4753"/>
  <rect x="220" y="0" width="20" height="20" fill="#3f4753"/>
  <rect x="240" y="0" width="20" height="20" fill="#424b58"/>
  <rect x="260" y="0" width="20" height="20" fill="#424b58"/>
  <rect x="280" y="0" width="20" height="20" fill="#3d4551"/>
  <rect x="300" y="0" width="20" height="20" fill="#3d4551"/>
  <rect x="320" y="0" width="20" height="20" fill="#3f4753"/>
  <rect x="340" y="0" width="20" height="20" fill="#3f4753"/>
  <rect x="0" y="20" width="20" height="20" fill="#3a414c"/>
  <rect x="20" y="20" width="20" height="20" fill="#3a414c"/>
  <rect x="40" y="20" width="20" height="20" fill="#3b434e"/>
  <rect x="60" y="20" width="20" height="20" fill="#3b434e"/>
  <rect x="80" y="20" width="20" height="20" fill="#3c4450"/>
  <rect x="100" y="20" width="20" height="20" fill="#3c4450"/>
  <rect x="120" y="20" width="20" height="20" fill="#434c59"/>
  <rect x="140" y="20" width="20" height="20" fill="#434c59"/>
  <rect x="160" y="20" width="20" height="20" fill="#3a424d"/>
  <rect x="180" y="20" width="20" height="20" fill="#3a424d"/>
  <rect x="200" y="20" width="20" height="20" fill="#3f4753"/>
  <rect x="220" y="20" width="20" height="20" fill="#3f4753"/>
  <rect x="240" y="20" width="20" height="20" fill="#424b58"/>
  <rect x="260" y="20" width="20" height="20" fill="#424b58"/>
  <rect x="280" y="20" width="20" height="20" fill="#3d4551"/>
  <rect x="300" y="20" width="20" height="20" fill="#3d4551"/>
  <rect x="320" y="20" width="20" height="20" fill="#3f4753"/>
  <rect x="340" y="20" width="20" height="20" fill="#3f4753"/>
  <rect x="0" y="40" width="20" height="20" fill="#3b424d"/>
  <rect x="20" y="40" width="20" height="20" fill="#3b424d"/>
  <rect x="40" y="40" width="20" height="20" fill="#404855"/>
  <rect x="60" y="40" width="20" height="20" fill="#404855"/>
  <rect x="80" y="40" width="20" height="20" fill="#424a57"/>
  <rect x="100" y="40" width="20" height="20" fill="#424a57"/>
  <rect x="120" y="40" width="20" height="20" fill="#3a414c"/>
  <rect x="140" y="40" width="20" height="20" fill="#3a414c"/>
  <rect x="160" y="40" width="20" height="20" fill="#3c444f"/>
  <rect x="180" y="40" width="20" height="20" fill="#3c444f"/>
  <rect x="200" y="40" width="20" height="20" fill="#414955"/>
  <rect x="220" y="40" width="20" height="20" fill="#414955"/>
  <rect x="240" y="40" width="20" height="20" fill="#414955"/>
  <rect x="260" y="40" width="20" height="20" fill="#414955"/>
  <rect x="280" y="40" width="20" height="20" fill="#434b58"/>
  <rect x="300" y="40" width="20" height="20" fill="#434b58"/>
  <rect x="320" y="40" width="20" height="20" fill="#414a56"/>
  <rect x="340" y="40" width="20" height="20" fill="#414a56"/>
  <rect x="0" y="60" width="20" height="20" fill="#3b424d"/>
  <rect x="20" y="60" width="20" height="20" fill="#3b424d"/>
  <rect x="40" y="60" width="20" height="20" fill="#404855"/>
  <rect x="60" y="60" width="20" height="20" fill="#404855"/>
  <rect x="80" y="60" width="20" height="20" fill="#424a57"/>
  <rect x="100" y="60" width="20" height="20" fill="#424a57"/>
  <rect x="120" y="60" width="20" height="20" fill="#3a414c"/>
  <rect x="140" y="60" width="20" height="20" fill="#3a414c"/>
  <rect x="160" y="60" width="20" height="20" fill="#3c444f"/>
  <rect x="180" y="60" width="20" height="20" fill="#3c444f"/>
  <rect x="200" y="60" width="20" height="20" fill="#414955"/>
  <rect x="220" y="60" width="20" height="20" fill="#414955"/>
  <rect x="240" y="60" width="20" height="20" fill="#414955"/>
  <rect x="260" y="60" width="20" height="20" fill="#414955"/>
  <rect x="280" y="60" width="20" height="20" fill="#434b58"/>
  <rect x="300" y="60" width="20" height="20" fill="#434b58"/>
  <rect x="320" y="60" width="20" height="20" fill="#414a56"/>
  <rect x="340" y="60" width="20" height="20" fill="#414a56"/>
  <rect x="0" y="80" width="20" height="20" fill="#414a56"/>
  <rect x="20" y="80" width="20" height="20" fill="#414a56"/>
  <rect x="40" y="80" width="20" height="20" fill="#3f4753"/>
  <rect x="60" y="80" width="20" height="20" fill="#3f4753"/>
  <rect x="80" y="80" width="20" height="20" fill="#3b424e"/>
  <rect x="100" y="80" width="20" height="20" fill="#3b424e"/>
  <rect x="120" y="80" width="20" height="20" fill="#3a424d"/>
  <rect x="140" y="80" width="20" height="20" fill="#3a424d"/>
  <rect x="160" y="80" width="20" height="20" fill="#3e4652"/>
  <rect x="180" y="80" width="20" height="20" fill="#3e4652"/>
  <rect x="200" y="80" width="20" height="20" fill="#424b58"/>
  <rect x="220" y="80" width="20" height="20" fill="#424b58"/>
  <rect x="240" y="80" width="20" height="20" fill="#3e4652"/>
  <rect x="260" y="80" width="20" height="20" fill="#3e4652"/>
  <rect x="280" y="80" width="20" height="20" fill="#3c434f"/>
  <rect x="300" y="80" width="20" height="20" fill="#3c434f"/>
  <rect x="320" y="80" width="20" height="20" fill="#404854"/>
  <rect x="340" y="80" width="20" height="20" fill="#404854"/>
  <rect x="0" y="100" width="20" height="20" fill="#414a56"/>
  <rect x="20" y="100" width="20" height="20" fill="#414a56"/>
  <rect x="40" y="100" width="20" height="20" fill="#3f4753"/>
  <rect x="60" y="100" width="20" height="20" fill="#3f4753"/>
  <rect x="80" y="100" width="20" height="20" fill="#3b424e"/>
  <rect x="100" y="100" width="20" height="20" fill="#3b424e"/>
  <rect x="120" y="100" width="20" height="20" fill="#3a424d"/>
  <rect x="140" y="100" width="20" height="20" fill="#3a424d"/>
  <rect x="160" y="100" width="20" height="20" fill="#3e4652"/>
  <rect x="180" y="100" width="20" height="20" fill="#3e4652"/>
  <rect x="200" y="100" width="20" height="20" fill="#424b58"/>
  <rect x="220" y="100" width="20" height="20" fill="#424b58"/>
  <rect x="240" y="100" width="20" height="20" fill="#3e4652"/>
  <rect x="260" y="100" width="20" height="20" fill="#3e4652"/>
  <rect x="280" y="100" width="20" height="20" fill="#3c434f"/>
  <rect x="300" y="100" width="20" height="20" fill="#3c434f"/>
  <rect x="320" y="100" width="20" height="20" fill="#404854"/>
  <rect x="340" y="100" width="20" height="20" fill="#404854"/>
  <rect x="0" y="120" width="20" height="20" fill="#424b57"/>
  <rect x="20" y="120" width="20" height="20" fill="#424b57"/>
  <rect x="40" y="120" width="20" height="20" fill="#3b424d"/>
  <rect x="60" y="120" width="20" height="20" fill="#3b424d"/>
  <rect x="80" y="120" width="20" height="20" fill="#3d4551"/>
  <rect x="100" y="120" width="20" height="20" fill="#3d4551"/>
  <rect x="120" y="120" width="20" height="20" fill="#3f4753"/>
  <rect x="140" y="120" width="20" height="20" fill="#3f4753"/>
  <rect x="160" y="120" width="20" height="20" fill="#434c59"/>
  <rect x="180" y="120" width="20" height="20" fill="#434c59"/>
  <rect x="200" y="120" width="20" height="20" fill="#3c4450"/>
  <rect x="220" y="120" width="20" height="20" fill="#3c4450"/>
  <rect x="240" y="120" width="20" height="20" fill="#434c58"/>
  <rect x="260" y="120" width="20" height="20" fill="#434c58"/>
  <rect x="280" y="120" width="20" height="20" fill="#3c434f"/>
  <rect x="300" y="120" width="20" height="20" fill="#3c434f"/>
  <rect x="320" y="120" width="20" height="20" fill="#3e4652"/>
  <rect x="340" y="120" width="20" height="20" fill="#3e4652"/>
  <rect x="0" y="140" width="20" height="20" fill="#424b57"/>
  <rect x="20" y="140" width="20" height="20" fill="#424b57"/>
  <rect x="40" y="140" width="20" height="20" fill="#3b424d"/>
  <rect x="60" y="140" width="20" height="20" fill="#3b424d"/>
  <rect x="80" y="140" width="20" height="20" fill="#3d4551"/>
  <rect x="100" y="140" width="20" height="20" fill="#3d4551"/>
  <rect x="120" y="140" width="20" height="20" fill="#3f4753"/>
  <rect x="140" y="140" width="20" height="20" fill="#3f4753"/>
  <rect x="160" y="140" width="20" height="20" fill="#434c59"/>
  <rect x="180" y="140" width="20" height="20" fill="#434c59"/>
  <rect x="200" y="140" width="20" height="20" fill="#3c4450"/>
  <rect x="220" y="140" width="20" height="20" fill="#3c4450"/>
  <rect x="240" y="140" width="20" height="20" fill="#434c58"/>
  <rect x="260" y="140" width="20" height="20" fill="#434c58"/>
  <rect x="280" y="140" width="20" height="20" fill="#3c434f"/>
  <rect x="300" y="140" width="20" height="20" fill="#3c434f"/>
  <rect x="320" y="140" width="20" height="20" fill="#3e4652"/>
  <rect x="340" y="140" width="20" height="20" fill="#3e4652"/>
  <rect x="0" y="160" width="20" height="20" fill="#444c59"/>
  <rect x="20" y="160" width="20" height="20" fill="#444c59"/>
  <rect x="40" y="160" width="20" height="20" fill="#3f4753"/>
  <rect x="60" y="160" width="20" height="20" fill="#3f4753"/>
  <rect x="80" y="160" width="20" height="20" fill="#424b57"/>
  <rect x="100" y="160" width="20" height="20" fill="#424b57"/>
  <rect x="120" y="160" width="20" height="20" fill="#444d5a"/>
  <rect x="140" y="160" width="20" height="20" fill="#444d5a"/>
  <rect x="160" y="160" width="20" height="20" fill="#3f4753"/>
  <rect x="180" y="160" width="20" height="20" fill="#3f4753"/>
  <rect x="200" y="160" width="20" height="20" fill="#3f4753"/>
  <rect x="220" y="160" width="20" height="20" fill="#3f4753"/>
  <rect x="240" y="160" width="20" height="20" fill="#3b424d"/>
  <rect x="260" y="160" width="20" height="20" fill="#3b424d"/>
  <rect x="280" y="160" width="20" height="20" fill="#434c58"/>
  <rect x="300" y="160" width="20" height="20" fill="#434c58"/>
  <rect x="320" y="160" width="20" height="20" fill="#3b434e"/>
  <rect x="340" y="160" width="20" height="20" fill="#3b434e"/>
  <rect x="0" y="180" width="20" height="20" fill="#444c59"/>
  <rect x="20" y="180" width="20" height="20" fill="#444c59"/>
  <rect x="40" y="180" width="20" height="20" fill="#3f4753"/>
  <rect x="60" y="180" width="20" height="20" fill="#3f4753"/>
  <rect x="80" y="180" width="20" height="20" fill="#424b57"/>
  <rect x="100" y="180" width="20" height="20" fill="#424b57"/>
  <rect x="120" y="180" width="20" height="20" fill="#444d5a"/>
  <rect x="140" y="180" width="20" height="20" fill="#444d5a"/>
  <rect x="160" y="180" width="20" height="20" fill="#3f4753"/>
  <rect x="180" y="180" width="20" height="20" fill="#3f4753"/>
  <rect x="200" y="180" width="20" height="20" fill="#3f4753"/>
  <rect x="220" y="180" width="20" height="20" fill="#3f4753"/>
  <rect x="240" y="180" width="20" height="20" fill="#3b424d"/>
  <rect x="260" y="180" width="20" height="20" fill="#3b424d"/>
  <rect x="280" y="180" width="20" height="20" fill="#434c58"/>
  <rect x="300" y="180" width="20" height="20" fill="#434c58"/>
  <rect x="320" y="180" width="20" height="20" fill="#3b434e"/>
  <rect x="340" y="180" width="20" height="20" fill="#3b434e"/>
  <rect x="0" y="200" width="20" height="20" fill="#404854"/>
  <rect x="20" y="200" width="20" height="20" fill="#404854"/>
  <rect x="40" y="200" width="20" height="20" fill="#3a424d"/>
  <rect x="60" y="200" width="20" height="20" fill="#3a424d"/>
  <rect x="80" y="200" width="20" height="20" fill="#424b57"/>
  <rect x="100" y="200" width="20" height="20" fill="#424b57"/>
  <rect x="120" y="200" width="20" height="20" fill="#404855"/>
  <rect x="140" y="200" width="20" height="20" fill="#404855"/>
  <rect x="160" y="200" width="20" height="20" fill="#404854"/>
  <rect x="180" y="200" width="20" height="20" fill="#404854"/>
  <rect x="200" y="200" width="20" height="20" fill="#3c444f"/>
  <rect x="220" y="200" width="20" height="20" fill="#3c444f"/>
  <rect x="240" y="200" width="20" height="20" fill="#424b57"/>
  <rect x="260" y="200" width="20" height="20" fill="#424b57"/>
  <rect x="280" y="200" width="20" height="20" fill="#3b424d"/>
  <rect x="300" y="200" width="20" height="20" fill="#3b424d"/>
  <rect x="320" y="200" width="20" height="20" fill="#444c59"/>
  <rect x="340" y="200" width="20" height="20" fill="#444c59"/>
  <rect x="0" y="220" width="20" height="20" fill="#404854"/>
  <rect x="20" y="220" width="20" height="20" fill="#404854"/>
  <rect x="40" y="220" width="20" height="20" fill="#3a424d"/>
  <rect x="60" y="220" width="20" height="20" fill="#3a424d"/>
  <rect x="80" y="220" width="20" height="20" fill="#424b57"/>
  <rect x="100" y="220" width="20" height="20" fill="#424b57"/>
  <rect x="120" y="220" width="20" height="20" fill="#404855"/>
  <rect x="140" y="220" width="20" height="20" fill="#404855"/>
  <rect x="160" y="220" width="20" height="20" fill="#404854"/>
  <rect x="180" y="220" width="20" height="20" fill="#404854"/>
  <rect x="200" y="220" width="20" height="20" fill="#3c444f"/>
  <rect x="220" y="220" width="20" height="20" fill="#3c444f"/>
  <rect x="240" y="220" width="20" height="20" fill="#424b57"/>
  <rect x="260" y="220" width="20" height="20" fill="#424b57"/>
  <rect x="280" y="220" width="20" height="20" fill="#3b424d"/>
  <rect x="300" y="220" width="20" height="20" fill="#3b424d"/>
  <rect x="320" y="220" width="20" height="20" fill="#444c59"/>
  <rect x="340" y="220" width="20" height="20" fill="#444c59"/>
  <rect x="0" y="240" width="20" height="20" fill="#3f4753"/>
  <rect x="20" y="240" width="20" height="20" fill="#3f4753"/>
  <rect x="40" y="240" width="20" height="20" fill="#434b58"/>
  <rect x="60" y="240" width="20" height="20" fill="#434b58"/>
  <rect x="80" y="240" width="20" height="20" fill="#3c444f"/>
  <rect x="100" y="240" width="20" height="20" fill="#3c444f"/>
  <rect x="120" y="240" width="20" height="20" fill="#424a56"/>
  <rect x="140" y="240" width="20" height="20" fill="#424a56"/>
  <rect x="160" y="240" width="20" height="20" fill="#3f4754"/>
  <rect x="180" y="240" width="20" height="20" fill="#3f4754"/>
  <rect x="200" y="240" width="20" height="20" fill="#424a57"/>
  <rect x="220" y="240" width="20" height="20" fill="#424a57"/>
  <rect x="240" y="240" width="20" height="20" fill="#3b424d"/>
  <rect x="260" y="240" width="20" height="20" fill="#3b424d"/>
  <rect x="280" y="240" width="20" height="20" fill="#3b434e"/>
  <rect x="300" y="240" width="20" height="20" fill="#3b434e"/>
  <rect x="320" y="240" width="20" height="20" fill="#3c444f"/>
  <rect x="340" y="240" width="20" height="20" fill="#3c444f"/>
  <rect x="0" y="260" width="20" height="20" fill="#3f4753"/>
  <rect x="20" y="260" width="20" height="20" fill="#3f4753"/>
  <rect x="40" y="260" width="20" height="20" fill="#434b58"/>
  <rect x="60" y="260" width="20" height="20" fill="#434b58"/>
  <rect x="80" y="260" width="20" height="20" fill="#3c444f"/>
  <rect x="100" y="260" width="20" height="20" fill="#3c444f"/>
  <rect x="120" y="260" width="20" height="20" fill="#424a56"/>
  <rect x="140" y="260" width="20" height="20" fill="#424a56"/>
  <rect x="160" y="260" width="20" height="20" fill="#3f4754"/>
  <rect x="180" y="260" width="20" height="20" fill="#3f4754"/>
  <rect x="200" y="260" width="20" height="20" fill="#424a57"/>
  <rect x="220" y="260" width="20" height="20" fill="#424a57"/>
  <rect x="240" y="260" width="20" height="20" fill="#3b424d"/>
  <rect x="260" y="260" width="20" height="20" fill="#3b424d"/>
  <rect x="280" y="260" width="20" height="20" fill="#3b434e"/>
  <rect x="300" y="260" width="20" height="20" fill="#3b434e"/>
  <rect x="320" y="260" width="20" height="20" fill="#3c444f"/>
  <rect x="340" y="260" width="20" height="20" fill="#3c444f"/>
  <rect x="0" y="280" width="20" height="20" fill="#404854"/>
  <rect x="20" y="280" width="20" height="20" fill="#404854"/>
  <rect x="40" y="280" width="20" height="20" fill="#3c444f"/>
  <rect x="60" y="280" width="20" height="20" fill="#3c444f"/>
  <rect x="80" y="280" width="20" height="20" fill="#3e4652"/>
  <rect x="100" y="280" width="20" height="20" fill="#3e4652"/>
  <rect x="120" y="280" width="20" height="20" fill="#3f4753"/>
  <rect x="140" y="280" width="20" height="20" fill="#3f4753"/>
  <rect x="160" y="280" width="20" height="20" fill="#3b424d"/>
  <rect x="180" y="280" width="20" height="20" fill="#3b424d"/>
  <rect x="200" y="280" width="20" height="20" fill="#3c434f"/>
  <rect x="220" y="280" width="20" height="20" fill="#3c434f"/>
  <rect x="240" y="280" width="20" height="20" fill="#3e4652"/>
  <rect x="260" y="280" width="20" height="20" fill="#3e4652"/>
  <rect x="280" y="280" width="20" height="20" fill="#404854"/>
  <rect x="300" y="280" width="20" height="20" fill="#404854"/>
  <rect x="320" y="280" width="20" height="20" fill="#3a424d"/>
  <rect x="340" y="280" width="20" height="20" fill="#3a424d"/>
  <rect x="0" y="300" width="20" height="20" fill="#404854"/>
  <rect x="20" y="300" width="20" height="20" fill="#404854"/>
  <rect x="40" y="300" width="20" height="20" fill="#3c444f"/>
  <rect x="60" y="300" width="20" height="20" fill="#3c444f"/>
  <rect x="80" y="300" width="20" height="20" fill="#3e4652"/>
  <rect x="100" y="300" width="20" height="20" fill="#3e4652"/>
  <rect x="120" y="300" width="20" height="20" fill="#3f4753"/>
  <rect x="140" y="300" width="20" height="20" fill="#3f4753"/>
  <rect x="160" y="300" width="20" height="20" fill="#3b424d"/>
  <rect x="180" y="300" width="20" height="20" fill="#3b424d"/>
  <rect x="200" y="300" width="20" height="20" fill="#3c434f"/>
  <rect x="220" y="300" width="20" height="20" fill="#3c434f"/>
  <rect x="240" y="300" width="20" height="20" fill="#3e4652"/>
  <rect x="260" y="300" width="20" height="20" fill="#3e4652"/>
  <rect x="280" y="300" width="20" height="20" fill="#404854"/>
  <rect x="300" y="300" width="20" height="20" fill="#404854"/>
  <rect x="320" y="300" width="20" height="20" fill="#3a424d"/>
  <rect x="340" y="300" width="20" height="20" fill="#3a424d"/>
  <rect x="0" y="320" width="20" height="20" fill="#444c59"/>
  <rect x="20" y="320" width="20" height="20" fill="#444c59"/>
  <rect x="40" y="320" width="20" height="20" fill="#424a57"/>
  <rect x="60" y="320" width="20" height="20" fill="#424a57"/>
  <rect x="80" y="320" width="20" height="20" fill="#3c434f"/>
  <rect x="100" y="320" width="20" height="20" fill="#3c434f"/>
  <rect x="120" y="320" width="20" height="20" fill="#434c59"/>
  <rect x="140" y="320" width="20" height="20" fill="#434c59"/>
  <rect x="160" y="320" width="20" height="20" fill="#3c444f"/>
  <rect x="180" y="320" width="20" height="20" fill="#3c444f"/>
  <rect x="200" y="320" width="20" height="20" fill="#3e4651"/>
  <rect x="220" y="320" width="20" height="20" fill="#3e4651"/>
  <rect x="240" y="320" width="20" height="20" fill="#434c59"/>
  <rect x="260" y="320" width="20" height="20" fill="#434c59"/>
  <rect x="280" y="320" width="20" height="20" fill="#434b58"/>
  <rect x="300" y="320" width="20" height="20" fill="#434b58"/>
  <rect x="320" y="320" width="20" height="20" fill="#3e4652"/>
  <rect x="340" y="320" width="20" height="20" fill="#3e4652"/>
  <rect x="0" y="340" width="20" height="20" fill="#444c59"/>
  <rect x="20" y="340" width="20" height="20" fill="#444c59"/>
  <rect x="40" y="340" width="20" height="20" fill="#424a57"/>
  <rect x="60" y="340" width="20" height="20" fill="#424a57"/>
  <rect x="80" y="340" width="20" height="20" fill="#3c434f"/>
  <rect x="100" y="340" width="20" height="20" fill="#3c434f"/>
  <rect x="120" y="340" width="20" height="20" fill="#434c59"/>
  <rect x="140" y="340" width="20" height="20" fill="#434c59"/>
  <rect x="160" y="340" width="20" height="20" fill="#3c444f"/>
  <rect x="180" y="340" width="20" height="20" fill="#3c444f"/>
  <rect x="200" y="340" width="20" height="20" fill="#3e4651"/>
  <rect x="220" y="340" width="20" height="20" fill="#3e4651"/>
  <rect x="240" y="340" width="20" height="20" fill="#434c59"/>
  <rect x="260" y="340" width="20" height="20" fill="#434c59"/>
  <rect x="280" y="340" width="20" height="20" fill="#434b58"/>
  <rect x="300" y="340" width="20" height="20" fill="#434b58"/>
  <rect x="320" y="340" width="20" height="20" fill="#3e4652"/>
  <rect x="340" y="340" width="20" height="20" fill="#3e4652"/>
  </g>
    <rect x="80" y="20" width="20" height="20" fill="#b7b1d8"/>
  <rect x="100" y="20" width="20" height="20" fill="#b7b1d8"/>
  <rect x="120" y="20" width="20" height="20" fill="#b7b1d8"/>
  <rect x="140" y="20" width="20" height="20" fill="#b7b1d8"/>
  <rect x="160" y="20" width="20" height="20" fill="#b7b1d8"/>
  <rect x="180" y="20" width="20" height="20" fill="#b7b1d8"/>
  <rect x="200" y="20" width="20" height="20" fill="#b7b1d8"/>
  <rect x="220" y="20" width="20" height="20" fill="#b7b1d8"/>
  <rect x="240" y="20" width="20" height="20" fill="#b7b1d8"/>
  <rect x="60" y="40" width="20" height="20" fill="#b7b1d8"/>
  <rect x="80" y="40" width="20" height="20" fill="#b7b1d8"/>
  <rect x="100" y="40" width="20" height="20" fill="#b7b1d8"/>
  <rect x="120" y="40" width="20" height="20" fill="#b7b1d8"/>
  <rect x="140" y="40" width="20" height="20" fill="#b7b1d8"/>
  <rect x="160" y="40" width="20" height="20" fill="#b7b1d8"/>
  <rect x="180" y="40" width="20" height="20" fill="#b7b1d8"/>
  <rect x="200" y="40" width="20" height="20" fill="#b7b1d8"/>
  <rect x="220" y="40" width="20" height="20" fill="#b7b1d8"/>
  <rect x="240" y="40" width="20" height="20" fill="#b7b1d8"/>
  <rect x="260" y="40" width="20" height="20" fill="#b7b1d8"/>
  <rect x="60" y="60" width="20" height="20" fill="#b7b1d8"/>
  <rect x="80" y="60" width="20" height="20" fill="#161b22"/>
  <rect x="100" y="60" width="20" height="20" fill="#161b22"/>
  <rect x="120" y="60" width="20" height="20" fill="#161b22"/>
  <rect x="140" y="60" width="20" height="20" fill="#161b22"/>
  <rect x="160" y="60" width="20" height="20" fill="#161b22"/>
  <rect x="180" y="60" width="20" height="20" fill="#161b22"/>
  <rect x="200" y="60" width="20" height="20" fill="#161b22"/>
  <rect x="220" y="60" width="20" height="20" fill="#161b22"/>
  <rect x="240" y="60" width="20" height="20" fill="#161b22"/>
  <rect x="260" y="60" width="20" height="20" fill="#b7b1d8"/>
  <rect x="60" y="80" width="20" height="20" fill="#b7b1d8"/>
  <rect x="80" y="80" width="20" height="20" fill="#161b22"/>
  <rect x="100" y="80" width="20" height="20" fill="#161b22"/>
  <rect x="120" y="80" width="20" height="20" fill="#161b22"/>
  <rect x="140" y="80" width="20" height="20" fill="#161b22"/>
  <rect x="160" y="80" width="20" height="20" fill="#161b22"/>
  <rect x="180" y="80" width="20" height="20" fill="#161b22"/>
  <rect x="200" y="80" width="20" height="20" fill="#161b22"/>
  <rect x="220" y="80" width="20" height="20" fill="#161b22"/>
  <rect x="240" y="80" width="20" height="20" fill="#161b22"/>
  <rect x="260" y="80" width="20" height="20" fill="#b7b1d8"/>
  <rect x="60" y="100" width="20" height="20" fill="#b7b1d8"/>
  <rect x="80" y="100" width="20" height="20" fill="#161b22"/>
  <rect x="100" y="100" width="20" height="20" fill="#161b22"/>
  <rect x="120" y="100" width="20" height="20" fill="#9aa4a0"/>
  <rect x="140" y="100" width="20" height="20" fill="#9aa4a0"/>
  <rect x="160" y="100" width="20" height="20" fill="#9aa4a0"/>
  <rect x="180" y="100" width="20" height="20" fill="#9aa4a0"/>
  <rect x="200" y="100" width="20" height="20" fill="#9aa4a0"/>
  <rect x="220" y="100" width="20" height="20" fill="#161b22"/>
  <rect x="240" y="100" width="20" height="20" fill="#161b22"/>
  <rect x="260" y="100" width="20" height="20" fill="#b7b1d8"/>
  <rect x="60" y="120" width="20" height="20" fill="#b7b1d8"/>
  <rect x="80" y="120" width="20" height="20" fill="#161b22"/>
  <rect x="100" y="120" width="20" height="20" fill="#161b22"/>
  <rect x="120" y="120" width="20" height="20" fill="#9aa4a0"/>
  <rect x="140" y="120" width="20" height="20" fill="#9aa4a0"/>
  <rect x="160" y="120" width="20" height="20" fill="#9aa4a0"/>
  <rect x="180" y="120" width="20" height="20" fill="#9aa4a0"/>
  <rect x="200" y="120" width="20" height="20" fill="#9aa4a0"/>
  <rect x="220" y="120" width="20" height="20" fill="#161b22"/>
  <rect x="240" y="120" width="20" height="20" fill="#161b22"/>
  <rect x="260" y="120" width="20" height="20" fill="#b7b1d8"/>
  <rect x="60" y="140" width="20" height="20" fill="#b7b1d8"/>
  <rect x="80" y="140" width="20" height="20" fill="#161b22"/>
  <rect x="100" y="140" width="20" height="20" fill="#161b22"/>
  <rect x="120" y="140" width="20" height="20" fill="#9aa4a0"/>
  <rect x="140" y="140" width="20" height="20" fill="#9aa4a0"/>
  <rect x="160" y="140" width="20" height="20" fill="#9aa4a0"/>
  <rect x="180" y="140" width="20" height="20" fill="#9aa4a0"/>
  <rect x="200" y="140" width="20" height="20" fill="#9aa4a0"/>
  <rect x="220" y="140" width="20" height="20" fill="#161b22"/>
  <rect x="240" y="140" width="20" height="20" fill="#161b22"/>
  <rect x="260" y="140" width="20" height="20" fill="#b7b1d8"/>
  <rect x="60" y="160" width="20" height="20" fill="#b7b1d8"/>
  <rect x="80" y="160" width="20" height="20" fill="#161b22"/>
  <rect x="100" y="160" width="20" height="20" fill="#161b22"/>
  <rect x="120" y="160" width="20" height="20" fill="#161b22"/>
  <rect x="140" y="160" width="20" height="20" fill="#161b22"/>
  <rect x="160" y="160" width="20" height="20" fill="#161b22"/>
  <rect x="180" y="160" width="20" height="20" fill="#161b22"/>
  <rect x="200" y="160" width="20" height="20" fill="#161b22"/>
  <rect x="220" y="160" width="20" height="20" fill="#161b22"/>
  <rect x="240" y="160" width="20" height="20" fill="#161b22"/>
  <rect x="260" y="160" width="20" height="20" fill="#b7b1d8"/>
  <rect x="60" y="180" width="20" height="20" fill="#b7b1d8"/>
  <rect x="80" y="180" width="20" height="20" fill="#161b22"/>
  <rect x="100" y="180" width="20" height="20" fill="#161b22"/>
  <rect x="120" y="180" width="20" height="20" fill="#161b22"/>
  <rect x="140" y="180" width="20" height="20" fill="#161b22"/>
  <rect x="160" y="180" width="20" height="20" fill="#161b22"/>
  <rect x="180" y="180" width="20" height="20" fill="#161b22"/>
  <rect x="200" y="180" width="20" height="20" fill="#161b22"/>
  <rect x="220" y="180" width="20" height="20" fill="#161b22"/>
  <rect x="240" y="180" width="20" height="20" fill="#161b22"/>
  <rect x="260" y="180" width="20" height="20" fill="#b7b1d8"/>
  <rect x="60" y="200" width="20" height="20" fill="#b7b1d8"/>
  <rect x="80" y="200" width="20" height="20" fill="#b7b1d8"/>
  <rect x="100" y="200" width="20" height="20" fill="#b7b1d8"/>
  <rect x="120" y="200" width="20" height="20" fill="#b7b1d8"/>
  <rect x="140" y="200" width="20" height="20" fill="#b7b1d8"/>
  <rect x="160" y="200" width="20" height="20" fill="#b7b1d8"/>
  <rect x="180" y="200" width="20" height="20" fill="#b7b1d8"/>
  <rect x="200" y="200" width="20" height="20" fill="#b7b1d8"/>
  <rect x="220" y="200" width="20" height="20" fill="#b7b1d8"/>
  <rect x="240" y="200" width="20" height="20" fill="#b7b1d8"/>
  <rect x="260" y="200" width="20" height="20" fill="#b7b1d8"/>
  <rect x="60" y="220" width="20" height="20" fill="#b7b1d8"/>
  <rect x="80" y="220" width="20" height="20" fill="#b7b1d8"/>
  <rect x="100" y="220" width="20" height="20" fill="#161b22"/>
  <rect x="120" y="220" width="20" height="20" fill="#b7b1d8"/>
  <rect x="140" y="220" width="20" height="20" fill="#b7b1d8"/>
  <rect x="160" y="220" width="20" height="20" fill="#b7b1d8"/>
  <rect x="180" y="220" width="20" height="20" fill="#b7b1d8"/>
  <rect x="200" y="220" width="20" height="20" fill="#b7b1d8"/>
  <rect x="220" y="220" width="20" height="20" fill="#b7b1d8"/>
  <rect x="240" y="220" width="20" height="20" fill="#161b22"/>
  <rect x="260" y="220" width="20" height="20" fill="#b7b1d8"/>
  <rect x="60" y="240" width="20" height="20" fill="#b7b1d8"/>
  <rect x="80" y="240" width="20" height="20" fill="#161b22"/>
  <rect x="100" y="240" width="20" height="20" fill="#161b22"/>
  <rect x="120" y="240" width="20" height="20" fill="#161b22"/>
  <rect x="140" y="240" width="20" height="20" fill="#b7b1d8"/>
  <rect x="160" y="240" width="20" height="20" fill="#b7b1d8"/>
  <rect x="180" y="240" width="20" height="20" fill="#b7b1d8"/>
  <rect x="200" y="240" width="20" height="20" fill="#161b22"/>
  <rect x="220" y="240" width="20" height="20" fill="#b7b1d8"/>
  <rect x="240" y="240" width="20" height="20" fill="#b7b1d8"/>
  <rect x="260" y="240" width="20" height="20" fill="#b7b1d8"/>
  <rect x="60" y="260" width="20" height="20" fill="#b7b1d8"/>
  <rect x="80" y="260" width="20" height="20" fill="#b7b1d8"/>
  <rect x="100" y="260" width="20" height="20" fill="#161b22"/>
  <rect x="120" y="260" width="20" height="20" fill="#b7b1d8"/>
  <rect x="140" y="260" width="20" height="20" fill="#b7b1d8"/>
  <rect x="160" y="260" width="20" height="20" fill="#b7b1d8"/>
  <rect x="180" y="260" width="20" height="20" fill="#b7b1d8"/>
  <rect x="200" y="260" width="20" height="20" fill="#b7b1d8"/>
  <rect x="220" y="260" width="20" height="20" fill="#b7b1d8"/>
  <rect x="240" y="260" width="20" height="20" fill="#b7b1d8"/>
  <rect x="260" y="260" width="20" height="20" fill="#b7b1d8"/>
  <rect x="60" y="280" width="20" height="20" fill="#b7b1d8"/>
  <rect x="80" y="280" width="20" height="20" fill="#b7b1d8"/>
  <rect x="100" y="280" width="20" height="20" fill="#b7b1d8"/>
  <rect x="120" y="280" width="20" height="20" fill="#b7b1d8"/>
  <rect x="140" y="280" width="20" height="20" fill="#161b22"/>
  <rect x="160" y="280" width="20" height="20" fill="#b7b1d8"/>
  <rect x="180" y="280" width="20" height="20" fill="#161b22"/>
  <rect x="200" y="280" width="20" height="20" fill="#b7b1d8"/>
  <rect x="220" y="280" width="20" height="20" fill="#b7b1d8"/>
  <rect x="240" y="280" width="20" height="20" fill="#b7b1d8"/>
  <rect x="260" y="280" width="20" height="20" fill="#b7b1d8"/>
  <rect x="60" y="300" width="20" height="20" fill="#b7b1d8"/>
  <rect x="80" y="300" width="20" height="20" fill="#b7b1d8"/>
  <rect x="100" y="300" width="20" height="20" fill="#b7b1d8"/>
  <rect x="120" y="300" width="20" height="20" fill="#b7b1d8"/>
  <rect x="140" y="300" width="20" height="20" fill="#b7b1d8"/>
  <rect x="160" y="300" width="20" height="20" fill="#b7b1d8"/>
  <rect x="180" y="300" width="20" height="20" fill="#b7b1d8"/>
  <rect x="200" y="300" width="20" height="20" fill="#b7b1d8"/>
  <rect x="220" y="300" width="20" height="20" fill="#b7b1d8"/>
  <rect x="240" y="300" width="20" height="20" fill="#b7b1d8"/>
  <rect x="260" y="300" width="20" height="20" fill="#b7b1d8"/>
  <rect x="80" y="320" width="20" height="20" fill="#b7b1d8"/>
  <rect x="100" y="320" width="20" height="20" fill="#b7b1d8"/>
  <rect x="120" y="320" width="20" height="20" fill="#b7b1d8"/>
  <rect x="140" y="320" width="20" height="20" fill="#b7b1d8"/>
  <rect x="160" y="320" width="20" height="20" fill="#b7b1d8"/>
  <rect x="180" y="320" width="20" height="20" fill="#b7b1d8"/>
  <rect x="200" y="320" width="20" height="20" fill="#b7b1d8"/>
  <rect x="220" y="320" width="20" height="20" fill="#b7b1d8"/>
  <rect x="240" y="320" width="20" height="20" fill="#b7b1d8"/>
  <g clip-path="url(#device)" stroke="#000" stroke-opacity="0.22" stroke-width="2">
    <line x1="20" y1="0" x2="20" y2="360"/>
  <line x1="0" y1="20" x2="360" y2="20"/>
  <line x1="40" y1="0" x2="40" y2="360"/>
  <line x1="0" y1="40" x2="360" y2="40"/>
  <line x1="60" y1="0" x2="60" y2="360"/>
  <line x1="0" y1="60" x2="360" y2="60"/>
  <line x1="80" y1="0" x2="80" y2="360"/>
  <line x1="0" y1="80" x2="360" y2="80"/>
  <line x1="100" y1="0" x2="100" y2="360"/>
  <line x1="0" y1="100" x2="360" y2="100"/>
  <line x1="120" y1="0" x2="120" y2="360"/>
  <line x1="0" y1="120" x2="360" y2="120"/>
  <line x1="140" y1="0" x2="140" y2="360"/>
  <line x1="0" y1="140" x2="360" y2="140"/>
  <line x1="160" y1="0" x2="160" y2="360"/>
  <line x1="0" y1="160" x2="360" y2="160"/>
  <line x1="180" y1="0" x2="180" y2="360"/>
  <line x1="0" y1="180" x2="360" y2="180"/>
  <line x1="200" y1="0" x2="200" y2="360"/>
  <line x1="0" y1="200" x2="360" y2="200"/>
  <line x1="220" y1="0" x2="220" y2="360"/>
  <line x1="0" y1="220" x2="360" y2="220"/>
  <line x1="240" y1="0" x2="240" y2="360"/>
  <line x1="0" y1="240" x2="360" y2="240"/>
  <line x1="260" y1="0" x2="260" y2="360"/>
  <line x1="0" y1="260" x2="360" y2="260"/>
  <line x1="280" y1="0" x2="280" y2="360"/>
  <line x1="0" y1="280" x2="360" y2="280"/>
  <line x1="300" y1="0" x2="300" y2="360"/>
  <line x1="0" y1="300" x2="360" y2="300"/>
  <line x1="320" y1="0" x2="320" y2="360"/>
  <line x1="0" y1="320" x2="360" y2="320"/>
  <line x1="340" y1="0" x2="340" y2="360"/>
  <line x1="0" y1="340" x2="360" y2="340"/>
  </g>
</svg>
