<svg xmlns="http://www.w3.org/2000/svg" viewBox="0 0 696 696" width="696" height="696" shape-rendering="crispEdges" role="img" aria-label="oxGBC">
  <defs>
    <linearGradient id="bg" x1="0" y1="0" x2="0" y2="1">
      <stop offset="0" stop-color="#1b2430"/>
      <stop offset="1" stop-color="#0d1117"/>
    </linearGradient>
    <clipPath id="screen"><rect x="0" y="0" width="696" height="696" rx="125"/></clipPath>
  </defs>
  <rect x="0" y="0" width="696" height="696" rx="125" fill="url(#bg)"/>
    <rect x="96" y="192" width="24" height="24" fill="#ff3b30"/>
  <rect x="120" y="192" width="24" height="24" fill="#ff3b30"/>
  <rect x="144" y="192" width="24" height="24" fill="#ff3b30"/>
  <rect x="72" y="216" width="24" height="24" fill="#ff3b30"/>
  <rect x="168" y="216" width="24" height="24" fill="#ff3b30"/>
  <rect x="72" y="240" width="24" height="24" fill="#ff3b30"/>
  <rect x="168" y="240" width="24" height="24" fill="#ff3b30"/>
  <rect x="72" y="264" width="24" height="24" fill="#ff3b30"/>
  <rect x="168" y="264" width="24" height="24" fill="#ff3b30"/>
  <rect x="96" y="288" width="24" height="24" fill="#ff3b30"/>
  <rect x="120" y="288" width="24" height="24" fill="#ff3b30"/>
  <rect x="144" y="288" width="24" height="24" fill="#ff3b30"/>
  <rect x="216" y="192" width="24" height="24" fill="#a259ff"/>
  <rect x="312" y="192" width="24" height="24" fill="#a259ff"/>
  <rect x="240" y="216" width="24" height="24" fill="#a259ff"/>
  <rect x="288" y="216" width="24" height="24" fill="#a259ff"/>
  <rect x="264" y="240" width="24" height="24" fill="#a259ff"/>
  <rect x="240" y="264" width="24" height="24" fill="#a259ff"/>
  <rect x="288" y="264" width="24" height="24" fill="#a259ff"/>
  <rect x="216" y="288" width="24" height="24" fill="#a259ff"/>
  <rect x="312" y="288" width="24" height="24" fill="#a259ff"/>
  <rect x="240" y="336" width="24" height="24" fill="#34c759"/>
  <rect x="264" y="336" width="24" height="24" fill="#34c759"/>
  <rect x="288" y="336" width="24" height="24" fill="#34c759"/>
  <rect x="216" y="360" width="24" height="24" fill="#34c759"/>
  <rect x="312" y="360" width="24" height="24" fill="#34c759"/>
  <rect x="216" y="384" width="24" height="24" fill="#34c759"/>
  <rect x="216" y="408" width="24" height="24" fill="#34c759"/>
  <rect x="264" y="408" width="24" height="24" fill="#34c759"/>
  <rect x="288" y="408" width="24" height="24" fill="#34c759"/>
  <rect x="312" y="408" width="24" height="24" fill="#34c759"/>
  <rect x="216" y="432" width="24" height="24" fill="#34c759"/>
  <rect x="312" y="432" width="24" height="24" fill="#34c759"/>
  <rect x="216" y="456" width="24" height="24" fill="#34c759"/>
  <rect x="312" y="456" width="24" height="24" fill="#34c759"/>
  <rect x="240" y="480" width="24" height="24" fill="#34c759"/>
  <rect x="264" y="480" width="24" height="24" fill="#34c759"/>
  <rect x="288" y="480" width="24" height="24" fill="#34c759"/>
  <rect x="360" y="336" width="24" height="24" fill="#ffd60a"/>
  <rect x="384" y="336" width="24" height="24" fill="#ffd60a"/>
  <rect x="408" y="336" width="24" height="24" fill="#ffd60a"/>
  <rect x="432" y="336" width="24" height="24" fill="#ffd60a"/>
  <rect x="360" y="360" width="24" height="24" fill="#ffd60a"/>
  <rect x="456" y="360" width="24" height="24" fill="#ffd60a"/>
  <rect x="360" y="384" width="24" height="24" fill="#ffd60a"/>
  <rect x="456" y="384" width="24" height="24" fill="#ffd60a"/>
  <rect x="360" y="408" width="24" height="24" fill="#ffd60a"/>
  <rect x="384" y="408" width="24" height="24" fill="#ffd60a"/>
  <rect x="408" y="408" width="24" height="24" fill="#ffd60a"/>
  <rect x="432" y="408" width="24" height="24" fill="#ffd60a"/>
  <rect x="360" y="432" width="24" height="24" fill="#ffd60a"/>
  <rect x="456" y="432" width="24" height="24" fill="#ffd60a"/>
  <rect x="360" y="456" width="24" height="24" fill="#ffd60a"/>
  <rect x="456" y="456" width="24" height="24" fill="#ffd60a"/>
  <rect x="360" y="480" width="24" height="24" fill="#ffd60a"/>
  <rect x="384" y="480" width="24" height="24" fill="#ffd60a"/>
  <rect x="408" y="480" width="24" height="24" fill="#ffd60a"/>
  <rect x="432" y="480" width="24" height="24" fill="#ffd60a"/>
  <rect x="528" y="336" width="24" height="24" fill="#30d5c8"/>
  <rect x="552" y="336" width="24" height="24" fill="#30d5c8"/>
  <rect x="576" y="336" width="24" height="24" fill="#30d5c8"/>
  <rect x="504" y="360" width="24" height="24" fill="#30d5c8"/>
  <rect x="600" y="360" width="24" height="24" fill="#30d5c8"/>
  <rect x="504" y="384" width="24" height="24" fill="#30d5c8"/>
  <rect x="504" y="408" width="24" height="24" fill="#30d5c8"/>
  <rect x="504" y="432" width="24" height="24" fill="#30d5c8"/>
  <rect x="504" y="456" width="24" height="24" fill="#30d5c8"/>
  <rect x="600" y="456" width="24" height="24" fill="#30d5c8"/>
  <rect x="528" y="480" width="24" height="24" fill="#30d5c8"/>
  <rect x="552" y="480" width="24" height="24" fill="#30d5c8"/>
  <rect x="576" y="480" width="24" height="24" fill="#30d5c8"/>
  <g clip-path="url(#screen)" stroke="#000" stroke-opacity="0.3" stroke-width="2">
    <line x1="24" y1="0" x2="24" y2="696"/>
  <line x1="0" y1="24" x2="696" y2="24"/>
  <line x1="48" y1="0" x2="48" y2="696"/>
  <line x1="0" y1="48" x2="696" y2="48"/>
  <line x1="72" y1="0" x2="72" y2="696"/>
  <line x1="0" y1="72" x2="696" y2="72"/>
  <line x1="96" y1="0" x2="96" y2="696"/>
  <line x1="0" y1="96" x2="696" y2="96"/>
  <line x1="120" y1="0" x2="120" y2="696"/>
  <line x1="0" y1="120" x2="696" y2="120"/>
  <line x1="144" y1="0" x2="144" y2="696"/>
  <line x1="0" y1="144" x2="696" y2="144"/>
  <line x1="168" y1="0" x2="168" y2="696"/>
  <line x1="0" y1="168" x2="696" y2="168"/>
  <line x1="192" y1="0" x2="192" y2="696"/>
  <line x1="0" y1="192" x2="696" y2="192"/>
  <line x1="216" y1="0" x2="216" y2="696"/>
  <line x1="0" y1="216" x2="696" y2="216"/>
  <line x1="240" y1="0" x2="240" y2="696"/>
  <line x1="0" y1="240" x2="696" y2="240"/>
  <line x1="264" y1="0" x2="264" y2="696"/>
  <line x1="0" y1="264" x2="696" y2="264"/>
  <line x1="288" y1="0" x2="288" y2="696"/>
  <line x1="0" y1="288" x2="696" y2="288"/>
  <line x1="312" y1="0" x2="312" y2="696"/>
  <line x1="0" y1="312" x2="696" y2="312"/>
  <line x1="336" y1="0" x2="336" y2="696"/>
  <line x1="0" y1="336" x2="696" y2="336"/>
  <line x1="360" y1="0" x2="360" y2="696"/>
  <line x1="0" y1="360" x2="696" y2="360"/>
  <line x1="384" y1="0" x2="384" y2="696"/>
  <line x1="0" y1="384" x2="696" y2="384"/>
  <line x1="408" y1="0" x2="408" y2="696"/>
  <line x1="0" y1="408" x2="696" y2="408"/>
  <line x1="432" y1="0" x2="432" y2="696"/>
  <line x1="0" y1="432" x2="696" y2="432"/>
  <line x1="456" y1="0" x2="456" y2="696"/>
  <line x1="0" y1="456" x2="696" y2="456"/>
  <line x1="480" y1="0" x2="480" y2="696"/>
  <line x1="0" y1="480" x2="696" y2="480"/>
  <line x1="504" y1="0" x2="504" y2="696"/>
  <line x1="0" y1="504" x2="696" y2="504"/>
  <line x1="528" y1="0" x2="528" y2="696"/>
  <line x1="0" y1="528" x2="696" y2="528"/>
  <line x1="552" y1="0" x2="552" y2="696"/>
  <line x1="0" y1="552" x2="696" y2="552"/>
  <line x1="576" y1="0" x2="576" y2="696"/>
  <line x1="0" y1="576" x2="696" y2="576"/>
  <line x1="600" y1="0" x2="600" y2="696"/>
  <line x1="0" y1="600" x2="696" y2="600"/>
  <line x1="624" y1="0" x2="624" y2="696"/>
  <line x1="0" y1="624" x2="696" y2="624"/>
  <line x1="648" y1="0" x2="648" y2="696"/>
  <line x1="0" y1="648" x2="696" y2="648"/>
  <line x1="672" y1="0" x2="672" y2="696"/>
  <line x1="0" y1="672" x2="696" y2="672"/>
  </g>
</svg>
