<svg xmlns="http://www.w3.org/2000/svg" viewBox="0 0 696 696" width="696" height="696" role="img" aria-label="oxGBC">
  <defs>
    <linearGradient id="bg" x1="0" y1="0" x2="0" y2="1">
      <stop offset="0" stop-color="#1b2430"/>
      <stop offset="1" stop-color="#0d1117"/>
    </linearGradient>
  </defs>
  <rect x="0" y="0" width="696" height="696" rx="125" fill="url(#bg)"/>
    <rect x="96" y="192" width="24" height="24" fill="#ff3b30"/>
  <rect x="120" y="192" width="24" height="24" fill="#ff3b30"/>
  <rect x="144" y="192" width="24" height="24" fill="#ff3b30"/>
  <rect x="72" y="216" width="24" height="24" fill="#ff3b30"/>
  <rect x="168" y="216" width="24" height="24" fill="#ff3b30"/>
  <rect x="72" y="240" width="24" height="24" fill="#ff3b30"/>
  <rect x="168" y="240" width="24" height="24" fill="#ff3b30"/>
  <rect x="72" y="264" width="24" height="24" fill="#ff3b30"/>
  <rect x="168" y="264" width="24" height="24" fill="#ff3b30"/>
  <rect x="96" y="288" width="24" height="24" fill="#ff3b30"/>
  <rect x="120" y="288" width="24" height="24" fill="#ff3b30"/>
  <rect x="144" y="288" width="24" height="24" fill="#ff3b30"/>
  <rect x="216" y="192" width="24" height="24" fill="#a259ff"/>
  <rect x="312" y="192" width="24" height="24" fill="#a259ff"/>
  <rect x="240" y="216" width="24" height="24" fill="#a259ff"/>
  <rect x="288" y="216" width="24" height="24" fill="#a259ff"/>
  <rect x="264" y="240" width="24" height="24" fill="#a259ff"/>
  <rect x="240" y="264" width="24" height="24" fill="#a259ff"/>
  <rect x="288" y="264" width="24" height="24" fill="#a259ff"/>
  <rect x="216" y="288" width="24" height="24" fill="#a259ff"/>
  <rect x="312" y="288" width="24" height="24" fill="#a259ff"/>
  <rect x="240" y="336" width="24" height="24" fill="#34c759"/>
  <rect x="264" y="336" width="24" height="24" fill="#34c759"/>
  <rect x="288" y="336" width="24" height="24" fill="#34c759"/>
  <rect x="216" y="360" width="24" height="24" fill="#34c759"/>
  <rect x="312" y="360" width="24" height="24" fill="#34c759"/>
  <rect x="216" y="384" width="24" height="24" fill="#34c759"/>
  <rect x="216" y="408" width="24" height="24" fill="#34c759"/>
  <rect x="264" y="408" width="24" height="24" fill="#34c759"/>
  <rect x="288" y="408" width="24" height="24" fill="#34c759"/>
  <rect x="312" y="408" width="24" height="24" fill="#34c759"/>
  <rect x="216" y="432" width="24" height="24" fill="#34c759"/>
  <rect x="312" y="432" width="24" height="24" fill="#34c759"/>
  <rect x="216" y="456" width="24" height="24" fill="#34c759"/>
  <rect x="312" y="456" width="24" height="24" fill="#34c759"/>
  <rect x="240" y="480" width="24" height="24" fill="#34c759"/>
  <rect x="264" y="480" width="24" height="24" fill="#34c759"/>
  <rect x="288" y="480" width="24" height="24" fill="#34c759"/>
  <rect x="360" y="336" width="24" height="24" fill="#ffd60a"/>
  <rect x="384" y="336" width="24" height="24" fill="#ffd60a"/>
  <rect x="408" y="336" width="24" height="24" fill="#ffd60a"/>
  <rect x="432" y="336" width="24" height="24" fill="#ffd60a"/>
  <rect x="360" y="360" width="24" height="24" fill="#ffd60a"/>
  <rect x="456" y="360" width="24" height="24" fill="#ffd60a"/>
  <rect x="360" y="384" width="24" height="24" fill="#ffd60a"/>
  <rect x="456" y="384" width="24" height="24" fill="#ffd60a"/>
  <rect x="360" y="408" width="24" height="24" fill="#ffd60a"/>
  <rect x="384" y="408" width="24" height="24" fill="#ffd60a"/>
  <rect x="408" y="408" width="24" height="24" fill="#ffd60a"/>
  <rect x="432" y="408" width="24" height="24" fill="#ffd60a"/>
  <rect x="360" y="432" width="24" height="24" fill="#ffd60a"/>
  <rect x="456" y="432" width="24" height="24" fill="#ffd60a"/>
  <rect x="360" y="456" width="24" height="24" fill="#ffd60a"/>
  <rect x="456" y="456" width="24" height="24" fill="#ffd60a"/>
  <rect x="360" y="480" width="24" height="24" fill="#ffd60a"/>
  <rect x="384" y="480" width="24" height="24" fill="#ffd60a"/>
  <rect x="408" y="480" width="24" height="24" fill="#ffd60a"/>
  <rect x="432" y="480" width="24" height="24" fill="#ffd60a"/>
  <rect x="528" y="336" width="24" height="24" fill="#30d5c8"/>
  <rect x="552" y="336" width="24" height="24" fill="#30d5c8"/>
  <rect x="576" y="336" width="24" height="24" fill="#30d5c8"/>
  <rect x="504" y="360" width="24" height="24" fill="#30d5c8"/>
  <rect x="600" y="360" width="24" height="24" fill="#30d5c8"/>
  <rect x="504" y="384" width="24" height="24" fill="#30d5c8"/>
  <rect x="504" y="408" width="24" height="24" fill="#30d5c8"/>
  <rect x="504" y="432" width="24" height="24" fill="#30d5c8"/>
  <rect x="504" y="456" width="24" height="24" fill="#30d5c8"/>
  <rect x="600" y="456" width="24" height="24" fill="#30d5c8"/>
  <rect x="528" y="480" width="24" height="24" fill="#30d5c8"/>
  <rect x="552" y="480" width="24" height="24" fill="#30d5c8"/>
  <rect x="576" y="480" width="24" height="24" fill="#30d5c8"/>
</svg>
