<svg xmlns="http://www.w3.org/2000/svg" viewBox="0 0 360 360" width="360" height="360" role="img" aria-label="oxGBC">
  <defs>
    <linearGradient id="bg" x1="0" y1="0" x2="0" y2="1">
      <stop offset="0" stop-color="#1b2430"/>
      <stop offset="1" stop-color="#0d1117"/>
    </linearGradient>
  </defs>
  <rect x="0" y="0" width="360" height="360" rx="65" fill="url(#bg)"/>
    <rect x="72" y="96" width="24" height="24" fill="#ff3b30"/>
  <rect x="96" y="96" width="24" height="24" fill="#ff3b30"/>
  <rect x="120" y="96" width="24" height="24" fill="#ff3b30"/>
  <rect x="48" y="120" width="24" height="24" fill="#ff3b30"/>
  <rect x="144" y="120" width="24" height="24" fill="#ff3b30"/>
  <rect x="48" y="144" width="24" height="24" fill="#ff3b30"/>
  <rect x="144" y="144" width="24" height="24" fill="#ff3b30"/>
  <rect x="48" y="168" width="24" height="24" fill="#ff3b30"/>
  <rect x="144" y="168" width="24" height="24" fill="#ff3b30"/>
  <rect x="48" y="192" width="24" height="24" fill="#ff3b30"/>
  <rect x="144" y="192" width="24" height="24" fill="#ff3b30"/>
  <rect x="48" y="216" width="24" height="24" fill="#ff3b30"/>
  <rect x="144" y="216" width="24" height="24" fill="#ff3b30"/>
  <rect x="72" y="240" width="24" height="24" fill="#ff3b30"/>
  <rect x="96" y="240" width="24" height="24" fill="#ff3b30"/>
  <rect x="120" y="240" width="24" height="24" fill="#ff3b30"/>
  <rect x="192" y="96" width="24" height="24" fill="#a259ff"/>
  <rect x="288" y="96" width="24" height="24" fill="#a259ff"/>
  <rect x="192" y="120" width="24" height="24" fill="#a259ff"/>
  <rect x="288" y="120" width="24" height="24" fill="#a259ff"/>
  <rect x="216" y="144" width="24" height="24" fill="#a259ff"/>
  <rect x="264" y="144" width="24" height="24" fill="#a259ff"/>
  <rect x="240" y="168" width="24" height="24" fill="#a259ff"/>
  <rect x="216" y="192" width="24" height="24" fill="#a259ff"/>
  <rect x="264" y="192" width="24" height="24" fill="#a259ff"/>
  <rect x="192" y="216" width="24" height="24" fill="#a259ff"/>
  <rect x="288" y="216" width="24" height="24" fill="#a259ff"/>
  <rect x="192" y="240" width="24" height="24" fill="#a259ff"/>
  <rect x="288" y="240" width="24" height="24" fill="#a259ff"/>
</svg>
